<mxfile host="Electron" agent="Mozilla/5.0 (Windows NT 10.0; Win64; x64) AppleWebKit/537.36 (KHTML, like Gecko) draw.io/27.0.5 Chrome/134.0.6998.205 Electron/35.3.0 Safari/537.36" version="27.0.5">
  <diagram name="Page-1" id="yDsHuG096jvlD2axOiCL">
    <mxGraphModel dx="843" dy="588" grid="1" gridSize="10" guides="1" tooltips="1" connect="1" arrows="1" fold="1" page="1" pageScale="1" pageWidth="850" pageHeight="1100" math="0" shadow="0">
      <root>
        <mxCell id="0" />
        <mxCell id="1" parent="0" />
        <mxCell id="oN_iDVAgGQEhPIbZK6y7-1" value="" style="rounded=0;whiteSpace=wrap;html=1;" vertex="1" parent="1">
          <mxGeometry x="270" y="400" width="500" height="350" as="geometry" />
        </mxCell>
        <mxCell id="oN_iDVAgGQEhPIbZK6y7-2" value="TIME DISPLAY" style="rounded=1;whiteSpace=wrap;html=1;" vertex="1" parent="1">
          <mxGeometry x="380" y="590" width="280" height="105" as="geometry" />
        </mxCell>
        <mxCell id="oN_iDVAgGQEhPIbZK6y7-4" value="BREAK LENGTH DISPLAY" style="rounded=1;whiteSpace=wrap;html=1;" vertex="1" parent="1">
          <mxGeometry x="330" y="430" width="90" height="90" as="geometry" />
        </mxCell>
        <mxCell id="oN_iDVAgGQEhPIbZK6y7-5" value="SESSION LENGTH DISPLAY" style="rounded=1;whiteSpace=wrap;html=1;" vertex="1" parent="1">
          <mxGeometry x="620" y="430" width="90" height="90" as="geometry" />
        </mxCell>
        <mxCell id="oN_iDVAgGQEhPIbZK6y7-6" value="STOP/&lt;div&gt;CONTINUE&lt;/div&gt;" style="rounded=1;whiteSpace=wrap;html=1;" vertex="1" parent="1">
          <mxGeometry x="440" y="695" width="80" height="40" as="geometry" />
        </mxCell>
        <mxCell id="oN_iDVAgGQEhPIbZK6y7-7" value="RESET" style="rounded=1;whiteSpace=wrap;html=1;" vertex="1" parent="1">
          <mxGeometry x="520" y="695" width="80" height="40" as="geometry" />
        </mxCell>
        <mxCell id="oN_iDVAgGQEhPIbZK6y7-8" value="INC" style="rounded=1;whiteSpace=wrap;html=1;" vertex="1" parent="1">
          <mxGeometry x="342.5" y="520" width="35" height="30" as="geometry" />
        </mxCell>
        <mxCell id="oN_iDVAgGQEhPIbZK6y7-9" value="DEC" style="rounded=1;whiteSpace=wrap;html=1;" vertex="1" parent="1">
          <mxGeometry x="377.5" y="520" width="30" height="30" as="geometry" />
        </mxCell>
        <mxCell id="oN_iDVAgGQEhPIbZK6y7-10" value="DEC" style="rounded=1;whiteSpace=wrap;html=1;" vertex="1" parent="1">
          <mxGeometry x="667.5" y="520" width="30" height="30" as="geometry" />
        </mxCell>
        <mxCell id="oN_iDVAgGQEhPIbZK6y7-11" value="INC" style="rounded=1;whiteSpace=wrap;html=1;" vertex="1" parent="1">
          <mxGeometry x="632.5" y="520" width="35" height="30" as="geometry" />
        </mxCell>
        <mxCell id="oN_iDVAgGQEhPIbZK6y7-12" value="currentTimeOut" style="shape=parallelogram;perimeter=parallelogramPerimeter;whiteSpace=wrap;html=1;fixedSize=1;" vertex="1" parent="1">
          <mxGeometry x="1100" y="210" width="120" height="60" as="geometry" />
        </mxCell>
        <mxCell id="oN_iDVAgGQEhPIbZK6y7-13" value="currentTimeOut&lt;div&gt;Type&lt;/div&gt;" style="shape=parallelogram;perimeter=parallelogramPerimeter;whiteSpace=wrap;html=1;fixedSize=1;" vertex="1" parent="1">
          <mxGeometry x="1200" y="210" width="120" height="60" as="geometry" />
        </mxCell>
        <mxCell id="oN_iDVAgGQEhPIbZK6y7-15" value="breakLength" style="shape=parallelogram;perimeter=parallelogramPerimeter;whiteSpace=wrap;html=1;fixedSize=1;" vertex="1" parent="1">
          <mxGeometry x="1300" y="210" width="120" height="60" as="geometry" />
        </mxCell>
        <mxCell id="oN_iDVAgGQEhPIbZK6y7-16" value="sessionLength" style="shape=parallelogram;perimeter=parallelogramPerimeter;whiteSpace=wrap;html=1;fixedSize=1;" vertex="1" parent="1">
          <mxGeometry x="1400" y="210" width="120" height="60" as="geometry" />
        </mxCell>
        <mxCell id="oN_iDVAgGQEhPIbZK6y7-23" value="" style="edgeStyle=orthogonalEdgeStyle;rounded=0;orthogonalLoop=1;jettySize=auto;html=1;" edge="1" parent="1" source="oN_iDVAgGQEhPIbZK6y7-21" target="oN_iDVAgGQEhPIbZK6y7-22">
          <mxGeometry relative="1" as="geometry" />
        </mxCell>
        <mxCell id="oN_iDVAgGQEhPIbZK6y7-27" style="edgeStyle=orthogonalEdgeStyle;rounded=0;orthogonalLoop=1;jettySize=auto;html=1;entryX=0;entryY=0.5;entryDx=0;entryDy=0;" edge="1" parent="1" source="oN_iDVAgGQEhPIbZK6y7-21" target="oN_iDVAgGQEhPIbZK6y7-24">
          <mxGeometry relative="1" as="geometry" />
        </mxCell>
        <mxCell id="oN_iDVAgGQEhPIbZK6y7-28" style="edgeStyle=orthogonalEdgeStyle;rounded=0;orthogonalLoop=1;jettySize=auto;html=1;entryX=0;entryY=0.5;entryDx=0;entryDy=0;" edge="1" parent="1" source="oN_iDVAgGQEhPIbZK6y7-21" target="oN_iDVAgGQEhPIbZK6y7-25">
          <mxGeometry relative="1" as="geometry" />
        </mxCell>
        <mxCell id="oN_iDVAgGQEhPIbZK6y7-29" style="edgeStyle=orthogonalEdgeStyle;rounded=0;orthogonalLoop=1;jettySize=auto;html=1;entryX=0;entryY=0.5;entryDx=0;entryDy=0;" edge="1" parent="1" source="oN_iDVAgGQEhPIbZK6y7-21" target="oN_iDVAgGQEhPIbZK6y7-26">
          <mxGeometry relative="1" as="geometry" />
        </mxCell>
        <mxCell id="oN_iDVAgGQEhPIbZK6y7-44" style="edgeStyle=orthogonalEdgeStyle;rounded=0;orthogonalLoop=1;jettySize=auto;html=1;entryX=0;entryY=0.5;entryDx=0;entryDy=0;" edge="1" parent="1" source="oN_iDVAgGQEhPIbZK6y7-21" target="oN_iDVAgGQEhPIbZK6y7-42">
          <mxGeometry relative="1" as="geometry" />
        </mxCell>
        <mxCell id="oN_iDVAgGQEhPIbZK6y7-45" style="edgeStyle=orthogonalEdgeStyle;rounded=0;orthogonalLoop=1;jettySize=auto;html=1;entryX=0;entryY=0.5;entryDx=0;entryDy=0;" edge="1" parent="1" source="oN_iDVAgGQEhPIbZK6y7-21" target="oN_iDVAgGQEhPIbZK6y7-43">
          <mxGeometry relative="1" as="geometry" />
        </mxCell>
        <mxCell id="oN_iDVAgGQEhPIbZK6y7-21" value="buttons" style="rounded=1;whiteSpace=wrap;html=1;" vertex="1" parent="1">
          <mxGeometry x="1100" y="420" width="120" height="60" as="geometry" />
        </mxCell>
        <mxCell id="oN_iDVAgGQEhPIbZK6y7-31" style="edgeStyle=orthogonalEdgeStyle;rounded=0;orthogonalLoop=1;jettySize=auto;html=1;exitX=1;exitY=0.5;exitDx=0;exitDy=0;entryX=0;entryY=0.5;entryDx=0;entryDy=0;" edge="1" parent="1" source="oN_iDVAgGQEhPIbZK6y7-22" target="oN_iDVAgGQEhPIbZK6y7-30">
          <mxGeometry relative="1" as="geometry" />
        </mxCell>
        <mxCell id="oN_iDVAgGQEhPIbZK6y7-22" value="incBL" style="rounded=1;whiteSpace=wrap;html=1;" vertex="1" parent="1">
          <mxGeometry x="1300" y="420" width="120" height="60" as="geometry" />
        </mxCell>
        <mxCell id="oN_iDVAgGQEhPIbZK6y7-33" style="edgeStyle=orthogonalEdgeStyle;rounded=0;orthogonalLoop=1;jettySize=auto;html=1;entryX=0;entryY=0.5;entryDx=0;entryDy=0;" edge="1" parent="1" source="oN_iDVAgGQEhPIbZK6y7-24" target="oN_iDVAgGQEhPIbZK6y7-30">
          <mxGeometry relative="1" as="geometry" />
        </mxCell>
        <mxCell id="oN_iDVAgGQEhPIbZK6y7-24" value="decBL" style="rounded=1;whiteSpace=wrap;html=1;" vertex="1" parent="1">
          <mxGeometry x="1300" y="490" width="120" height="60" as="geometry" />
        </mxCell>
        <mxCell id="oN_iDVAgGQEhPIbZK6y7-39" style="edgeStyle=orthogonalEdgeStyle;rounded=0;orthogonalLoop=1;jettySize=auto;html=1;entryX=0;entryY=0.5;entryDx=0;entryDy=0;" edge="1" parent="1" source="oN_iDVAgGQEhPIbZK6y7-25" target="oN_iDVAgGQEhPIbZK6y7-37">
          <mxGeometry relative="1" as="geometry" />
        </mxCell>
        <mxCell id="oN_iDVAgGQEhPIbZK6y7-25" value="incSL" style="rounded=1;whiteSpace=wrap;html=1;" vertex="1" parent="1">
          <mxGeometry x="1300" y="560" width="120" height="60" as="geometry" />
        </mxCell>
        <mxCell id="oN_iDVAgGQEhPIbZK6y7-41" style="edgeStyle=orthogonalEdgeStyle;rounded=0;orthogonalLoop=1;jettySize=auto;html=1;entryX=0;entryY=0.5;entryDx=0;entryDy=0;" edge="1" parent="1" source="oN_iDVAgGQEhPIbZK6y7-26" target="oN_iDVAgGQEhPIbZK6y7-37">
          <mxGeometry relative="1" as="geometry" />
        </mxCell>
        <mxCell id="oN_iDVAgGQEhPIbZK6y7-26" value="decSL" style="rounded=1;whiteSpace=wrap;html=1;" vertex="1" parent="1">
          <mxGeometry x="1300" y="630" width="120" height="60" as="geometry" />
        </mxCell>
        <mxCell id="oN_iDVAgGQEhPIbZK6y7-35" value="" style="edgeStyle=orthogonalEdgeStyle;rounded=0;orthogonalLoop=1;jettySize=auto;html=1;" edge="1" parent="1" source="oN_iDVAgGQEhPIbZK6y7-30" target="oN_iDVAgGQEhPIbZK6y7-34">
          <mxGeometry relative="1" as="geometry" />
        </mxCell>
        <mxCell id="oN_iDVAgGQEhPIbZK6y7-30" value="breakLength" style="shape=parallelogram;perimeter=parallelogramPerimeter;whiteSpace=wrap;html=1;fixedSize=1;" vertex="1" parent="1">
          <mxGeometry x="1520" y="450" width="120" height="60" as="geometry" />
        </mxCell>
        <mxCell id="oN_iDVAgGQEhPIbZK6y7-34" value="displayBreakLength" style="whiteSpace=wrap;html=1;" vertex="1" parent="1">
          <mxGeometry x="1720" y="450" width="120" height="60" as="geometry" />
        </mxCell>
        <mxCell id="oN_iDVAgGQEhPIbZK6y7-36" value="" style="edgeStyle=orthogonalEdgeStyle;rounded=0;orthogonalLoop=1;jettySize=auto;html=1;" edge="1" source="oN_iDVAgGQEhPIbZK6y7-37" target="oN_iDVAgGQEhPIbZK6y7-38" parent="1">
          <mxGeometry relative="1" as="geometry" />
        </mxCell>
        <mxCell id="oN_iDVAgGQEhPIbZK6y7-37" value="sessionLength" style="shape=parallelogram;perimeter=parallelogramPerimeter;whiteSpace=wrap;html=1;fixedSize=1;" vertex="1" parent="1">
          <mxGeometry x="1520" y="612.5" width="120" height="60" as="geometry" />
        </mxCell>
        <mxCell id="oN_iDVAgGQEhPIbZK6y7-38" value="displaySessionLength" style="whiteSpace=wrap;html=1;" vertex="1" parent="1">
          <mxGeometry x="1720" y="612.5" width="120" height="60" as="geometry" />
        </mxCell>
        <mxCell id="oN_iDVAgGQEhPIbZK6y7-62" style="edgeStyle=orthogonalEdgeStyle;rounded=0;orthogonalLoop=1;jettySize=auto;html=1;entryX=0;entryY=0.5;entryDx=0;entryDy=0;" edge="1" parent="1" source="oN_iDVAgGQEhPIbZK6y7-42" target="oN_iDVAgGQEhPIbZK6y7-46">
          <mxGeometry relative="1" as="geometry" />
        </mxCell>
        <mxCell id="oN_iDVAgGQEhPIbZK6y7-42" value="stop/continue" style="rounded=1;whiteSpace=wrap;html=1;" vertex="1" parent="1">
          <mxGeometry x="1300" y="730" width="120" height="60" as="geometry" />
        </mxCell>
        <mxCell id="oN_iDVAgGQEhPIbZK6y7-43" value="reset" style="rounded=1;whiteSpace=wrap;html=1;" vertex="1" parent="1">
          <mxGeometry x="1300" y="890" width="120" height="60" as="geometry" />
        </mxCell>
        <mxCell id="oN_iDVAgGQEhPIbZK6y7-48" value="enable" style="edgeStyle=orthogonalEdgeStyle;rounded=0;orthogonalLoop=1;jettySize=auto;html=1;entryX=0;entryY=0.5;entryDx=0;entryDy=0;" edge="1" parent="1" source="oN_iDVAgGQEhPIbZK6y7-46" target="oN_iDVAgGQEhPIbZK6y7-52">
          <mxGeometry relative="1" as="geometry">
            <mxPoint x="1860" y="760" as="targetPoint" />
          </mxGeometry>
        </mxCell>
        <mxCell id="oN_iDVAgGQEhPIbZK6y7-50" value="disable" style="edgeStyle=orthogonalEdgeStyle;rounded=0;orthogonalLoop=1;jettySize=auto;html=1;" edge="1" parent="1" source="oN_iDVAgGQEhPIbZK6y7-46" target="oN_iDVAgGQEhPIbZK6y7-49">
          <mxGeometry relative="1" as="geometry" />
        </mxCell>
        <mxCell id="oN_iDVAgGQEhPIbZK6y7-46" value="timeOut" style="whiteSpace=wrap;html=1;" vertex="1" parent="1">
          <mxGeometry x="1660" y="730" width="120" height="60" as="geometry" />
        </mxCell>
        <mxCell id="oN_iDVAgGQEhPIbZK6y7-49" value="displayTimeOut" style="whiteSpace=wrap;html=1;" vertex="1" parent="1">
          <mxGeometry x="1660" y="920" width="120" height="60" as="geometry" />
        </mxCell>
        <mxCell id="oN_iDVAgGQEhPIbZK6y7-66" value="" style="edgeStyle=orthogonalEdgeStyle;rounded=0;orthogonalLoop=1;jettySize=auto;html=1;" edge="1" parent="1" source="oN_iDVAgGQEhPIbZK6y7-51" target="oN_iDVAgGQEhPIbZK6y7-65">
          <mxGeometry relative="1" as="geometry" />
        </mxCell>
        <mxCell id="oN_iDVAgGQEhPIbZK6y7-51" value="currentTimeOut - 1" style="whiteSpace=wrap;html=1;" vertex="1" parent="1">
          <mxGeometry x="2020" y="730" width="120" height="60" as="geometry" />
        </mxCell>
        <mxCell id="oN_iDVAgGQEhPIbZK6y7-53" value="" style="edgeStyle=orthogonalEdgeStyle;rounded=0;orthogonalLoop=1;jettySize=auto;html=1;" edge="1" parent="1" source="oN_iDVAgGQEhPIbZK6y7-52" target="oN_iDVAgGQEhPIbZK6y7-51">
          <mxGeometry relative="1" as="geometry" />
        </mxCell>
        <mxCell id="oN_iDVAgGQEhPIbZK6y7-52" value="realtime + 1 second" style="ellipse;whiteSpace=wrap;html=1;" vertex="1" parent="1">
          <mxGeometry x="1850" y="720" width="120" height="80" as="geometry" />
        </mxCell>
        <mxCell id="oN_iDVAgGQEhPIbZK6y7-70" value="true" style="edgeStyle=orthogonalEdgeStyle;rounded=0;orthogonalLoop=1;jettySize=auto;html=1;" edge="1" parent="1" source="oN_iDVAgGQEhPIbZK6y7-65" target="oN_iDVAgGQEhPIbZK6y7-69">
          <mxGeometry relative="1" as="geometry" />
        </mxCell>
        <mxCell id="oN_iDVAgGQEhPIbZK6y7-73" value="false" style="edgeStyle=orthogonalEdgeStyle;rounded=0;orthogonalLoop=1;jettySize=auto;html=1;" edge="1" parent="1" source="oN_iDVAgGQEhPIbZK6y7-65" target="oN_iDVAgGQEhPIbZK6y7-72">
          <mxGeometry relative="1" as="geometry" />
        </mxCell>
        <mxCell id="oN_iDVAgGQEhPIbZK6y7-65" value="isTimeOut&amp;nbsp;&lt;div&gt;&amp;gt; 0&lt;/div&gt;" style="rhombus;whiteSpace=wrap;html=1;" vertex="1" parent="1">
          <mxGeometry x="2040" y="860" width="80" height="80" as="geometry" />
        </mxCell>
        <mxCell id="oN_iDVAgGQEhPIbZK6y7-71" value="update" style="edgeStyle=orthogonalEdgeStyle;rounded=0;orthogonalLoop=1;jettySize=auto;html=1;entryX=0.5;entryY=1;entryDx=0;entryDy=0;" edge="1" parent="1" source="oN_iDVAgGQEhPIbZK6y7-69" target="oN_iDVAgGQEhPIbZK6y7-52">
          <mxGeometry relative="1" as="geometry">
            <Array as="points">
              <mxPoint x="1910" y="840" />
              <mxPoint x="1910" y="840" />
            </Array>
          </mxGeometry>
        </mxCell>
        <mxCell id="oN_iDVAgGQEhPIbZK6y7-77" style="edgeStyle=orthogonalEdgeStyle;rounded=0;orthogonalLoop=1;jettySize=auto;html=1;entryX=1;entryY=0.5;entryDx=0;entryDy=0;" edge="1" parent="1" source="oN_iDVAgGQEhPIbZK6y7-69" target="oN_iDVAgGQEhPIbZK6y7-49">
          <mxGeometry relative="1" as="geometry" />
        </mxCell>
        <mxCell id="oN_iDVAgGQEhPIbZK6y7-69" value="currentTimeOut" style="shape=parallelogram;perimeter=parallelogramPerimeter;whiteSpace=wrap;html=1;fixedSize=1;" vertex="1" parent="1">
          <mxGeometry x="1850" y="870" width="120" height="60" as="geometry" />
        </mxCell>
        <mxCell id="oN_iDVAgGQEhPIbZK6y7-75" value="newTimeOut" style="edgeStyle=orthogonalEdgeStyle;rounded=0;orthogonalLoop=1;jettySize=auto;html=1;" edge="1" parent="1" source="oN_iDVAgGQEhPIbZK6y7-72" target="oN_iDVAgGQEhPIbZK6y7-74">
          <mxGeometry relative="1" as="geometry" />
        </mxCell>
        <mxCell id="oN_iDVAgGQEhPIbZK6y7-72" value="currentTimeOut&lt;div&gt;Type&lt;/div&gt;" style="shape=parallelogram;perimeter=parallelogramPerimeter;whiteSpace=wrap;html=1;fixedSize=1;" vertex="1" parent="1">
          <mxGeometry x="2020" y="990" width="120" height="60" as="geometry" />
        </mxCell>
        <mxCell id="oN_iDVAgGQEhPIbZK6y7-76" style="edgeStyle=orthogonalEdgeStyle;rounded=0;orthogonalLoop=1;jettySize=auto;html=1;entryX=0.5;entryY=1;entryDx=0;entryDy=0;" edge="1" parent="1" source="oN_iDVAgGQEhPIbZK6y7-74" target="oN_iDVAgGQEhPIbZK6y7-49">
          <mxGeometry relative="1" as="geometry" />
        </mxCell>
        <mxCell id="oN_iDVAgGQEhPIbZK6y7-74" value="currentTimeOut" style="shape=parallelogram;perimeter=parallelogramPerimeter;whiteSpace=wrap;html=1;fixedSize=1;" vertex="1" parent="1">
          <mxGeometry x="1840" y="990" width="120" height="60" as="geometry" />
        </mxCell>
      </root>
    </mxGraphModel>
  </diagram>
</mxfile>
